<svg width="39" height="40" viewBox="0 0 39 40" fill="none" xmlns="http://www.w3.org/2000/svg">
<g clip-path="url(#clip0_4268_932)">
<path d="M8.23425 19.1332L19.4121 8.11701L30.5893 19.1332H38.8235L19.4121 0L0 19.1332H8.23425Z" fill="#EF4A23"/>
<path d="M31.5055 23.0986V34.2608H7.08454V23.0986H1.26196V40.0001H37.3281V23.0986H31.5055Z" fill="#EF4A23"/>
<path d="M10.7277 8.62085H4.85034V14.8384H10.7277V8.62085Z" fill="#EF4A23"/>
<path d="M19.9336 28.0449C22.43 28.0449 24.4538 26.0501 24.4538 23.5893C24.4538 21.1286 22.43 19.1338 19.9336 19.1338C17.4371 19.1338 15.4133 21.1286 15.4133 23.5893C15.4133 26.0501 17.4371 28.0449 19.9336 28.0449Z" fill="#EF4A23"/>
<path d="M37.328 22.4021H20.7737V25.1263H37.328V22.4021Z" fill="#EF4A23"/>
</g>
<defs>
<clipPath id="clip0_4268_932">
<rect width="38.8235" height="40" fill="white"/>
</clipPath>
</defs>
</svg>
