<svg xmlns="http://www.w3.org/2000/svg">
    <symbol id = "map" >
        <g opacity = '0.6' fill="none">
            <path  d="M12 20.4634C11.9017 20.345 11.7955 20.2159 11.6827 20.0769C11.0393 19.2841 10.1832 18.1755 9.32896 16.9094C8.47285 15.6406 7.63106 14.2317 7.00635 12.8372C6.37577 11.4297 6 10.1102 6 9C6 7.4087 6.63214 5.88258 7.75736 4.75736C8.88258 3.63214 10.4087 3 12 3C13.5913 3 15.1174 3.63214 16.2426 4.75736C17.3679 5.88258 18 7.4087 18 9C18 10.1102 17.6242 11.4297 16.9936 12.8372C16.3689 14.2317 15.5272 15.6406 14.671 16.9094C13.8168 18.1755 12.9607 19.2841 12.3173 20.0769C12.2045 20.2159 12.0983 20.345 12 20.4634Z"  stroke="white" stroke-width="2" />
            <circle cx="12" cy="9" r="2" fill="white"/>
        </g>
    </symbol>

    <symbol id = "main-logo">
        <g clip-path="url(#clip0_4268_932)">
        <path d="M8.23425 19.1332L19.4121 8.11701L30.5893 19.1332H38.8235L19.4121 0L0 19.1332H8.23425Z" fill="#EF4A23"/>
        <path d="M31.5055 23.0986V34.2608H7.08454V23.0986H1.26196V40.0001H37.3281V23.0986H31.5055Z" fill="#EF4A23"/>
        <path d="M10.7277 8.62085H4.85034V14.8384H10.7277V8.62085Z" fill="#EF4A23"/>
        <path d="M19.9336 28.0449C22.43 28.0449 24.4538 26.0501 24.4538 23.5893C24.4538 21.1286 22.43 19.1338 19.9336 19.1338C17.4371 19.1338 15.4133 21.1286 15.4133 23.5893C15.4133 26.0501 17.4371 28.0449 19.9336 28.0449Z" fill="#EF4A23"/>
        <path d="M37.328 22.4021H20.7737V25.1263H37.328V22.4021Z" fill="#EF4A23"/>
        </g>
    </symbol>

    <symbol id = "menu">
        <path d="M3 6H21V8H3V6ZM3 11H21V13H3V11ZM3 16H21V18H3V16Z"/>
    </symbol>

    <symbol id = "cross-menu">
        <path d="M19 6.41L17.59 5L12 10.59L6.41 5L5 6.41L10.59 12L5 17.59L6.41 19L12 13.41L17.59 19L19 17.59L13.41 12L19 6.41Z"/>
    </symbol>
</svg>