<svg width="204" height="40" viewBox="0 0 204 40" fill="none" xmlns="http://www.w3.org/2000/svg">
<path d="M58.296 27.336C60.096 27.336 61.56 26.88 62.688 25.968C63.816 25.056 64.392 23.832 64.392 22.272C64.392 21.312 64.128 20.472 63.768 19.896C63.456 19.32 62.688 18.72 62.184 18.408C61.944 18.24 61.584 18.072 61.128 17.904C60.672 17.712 60.312 17.568 60.048 17.496L58.896 17.112C57.648 16.728 56.808 16.368 56.352 16.056C55.92 15.72 55.704 15.288 55.704 14.76C55.704 13.776 56.544 13.08 57.912 13.08C59.376 13.08 60.456 13.8 61.128 15.24L63.912 13.632C62.76 11.256 60.624 9.864 57.912 9.864C56.4 9.864 55.08 10.32 54 11.232C52.92 12.12 52.392 13.344 52.392 14.856C52.392 16.392 52.944 17.544 53.976 18.312C55.032 19.056 55.944 19.416 57.456 19.872C58.824 20.256 59.76 20.616 60.288 20.952C60.816 21.264 61.08 21.72 61.08 22.32C61.08 23.352 60.24 24.096 58.392 24.096C56.472 24.096 55.176 23.232 54.528 21.528L51.696 23.184C52.632 25.752 54.96 27.336 58.296 27.336ZM72.9206 15H70.2086V11.64L67.1126 12.576V15H65.0246V17.976H67.1126V22.968C67.1126 26.256 68.6726 27.48 72.9206 27V24.192C71.1446 24.288 70.2086 24.264 70.2086 22.968V17.976H72.9206V15ZM78.387 15H75.291V27H78.387V21.264C78.387 20.112 78.747 19.296 79.491 18.792C80.235 18.288 81.099 18.096 82.035 18.216V14.76C80.403 14.76 78.963 15.528 78.387 17.064V15ZM93.6244 25.512C94.8484 24.288 95.4724 22.776 95.4724 21C95.4724 19.224 94.8484 17.736 93.6244 16.512C92.4004 15.288 90.8884 14.664 89.1124 14.664C87.3364 14.664 85.8244 15.288 84.6004 16.512C83.3764 17.736 82.7764 19.224 82.7764 21C82.7764 22.776 83.3764 24.288 84.6004 25.512C85.8244 26.736 87.3364 27.336 89.1124 27.336C90.8884 27.336 92.4004 26.736 93.6244 25.512ZM86.7844 23.376C86.1844 22.752 85.8724 21.96 85.8724 21C85.8724 20.04 86.1844 19.248 86.7844 18.624C87.4084 18 88.1764 17.688 89.1124 17.688C90.0484 17.688 90.8164 18 91.4404 18.624C92.0644 19.248 92.3764 20.04 92.3764 21C92.3764 21.96 92.0644 22.752 91.4404 23.376C90.8164 24 90.0484 24.312 89.1124 24.312C88.1764 24.312 87.4084 24 86.7844 23.376ZM102.342 23.064L99.2216 15H95.8376L100.758 26.616C100.182 28.248 99.2696 28.944 97.6136 28.92V31.8C100.686 31.968 102.702 30.456 103.95 27L108.318 15H105.006L102.342 23.064ZM115.887 20.928L120.711 15H117.015L112.887 20.28V10.2H109.791V27H112.887V21.552L117.255 27H120.855L115.887 20.928ZM130.653 16.416C129.717 15.24 128.421 14.664 126.741 14.664C125.133 14.664 123.765 15.288 122.613 16.512C121.485 17.736 120.909 19.224 120.909 21C120.909 22.776 121.485 24.288 122.613 25.512C123.765 26.736 125.133 27.336 126.741 27.336C128.421 27.336 129.717 26.76 130.653 25.584V27H133.749V15H130.653V16.416ZM124.941 23.448C124.317 22.8 124.005 21.984 124.005 21C124.005 20.016 124.317 19.2 124.941 18.576C125.565 17.928 126.357 17.616 127.317 17.616C128.277 17.616 129.069 17.928 129.693 18.576C130.341 19.2 130.653 20.016 130.653 21C130.653 21.984 130.341 22.8 129.693 23.448C129.069 24.072 128.277 24.384 127.317 24.384C126.357 24.384 125.565 24.072 124.941 23.448ZM144.765 17.976V20.904H149.853C149.253 22.896 147.525 24.096 144.957 24.096C143.229 24.096 141.837 23.592 140.781 22.56C139.749 21.528 139.221 20.208 139.221 18.624C139.221 17.016 139.725 15.696 140.757 14.664C141.789 13.608 143.109 13.08 144.717 13.08C146.709 13.08 148.437 14.04 149.229 15.408L152.061 13.776C150.621 11.4 147.885 9.864 144.741 9.864C142.245 9.864 140.157 10.704 138.453 12.408C136.773 14.112 135.933 16.176 135.933 18.624C135.933 21.048 136.773 23.112 138.477 24.816C140.181 26.496 142.341 27.336 144.933 27.336C147.357 27.336 149.349 26.592 150.885 25.104C152.421 23.616 153.189 21.672 153.189 19.272V17.976H144.765ZM156.936 13.56C157.992 13.56 158.856 12.696 158.856 11.664C158.856 10.632 157.992 9.744 156.936 9.744C155.904 9.744 155.04 10.632 155.04 11.664C155.04 12.696 155.904 13.56 156.936 13.56ZM158.496 27V15H155.4V27H158.496ZM170.426 16.416C169.514 15.24 168.218 14.664 166.538 14.664C164.93 14.664 163.538 15.288 162.386 16.512C161.258 17.736 160.682 19.224 160.682 21C160.682 22.776 161.258 24.288 162.386 25.512C163.538 26.736 164.93 27.336 166.538 27.336C168.218 27.336 169.514 26.76 170.426 25.584V27H173.522V10.2H170.426V16.416ZM164.714 23.448C164.09 22.8 163.778 21.984 163.778 21C163.778 20.016 164.09 19.2 164.714 18.576C165.362 17.928 166.154 17.616 167.114 17.616C168.074 17.616 168.866 17.928 169.49 18.576C170.114 19.2 170.426 20.016 170.426 21C170.426 21.984 170.114 22.8 169.49 23.448C168.866 24.072 168.074 24.384 167.114 24.384C166.154 24.384 165.362 24.072 164.714 23.448ZM179.594 26.712C180.386 25.92 180.386 24.624 179.594 23.832C178.802 23.04 177.506 23.04 176.714 23.832C175.922 24.624 175.922 25.92 176.714 26.712C177.506 27.504 178.802 27.504 179.594 26.712ZM185.871 15H182.775V27H185.871V21.264C185.871 20.112 186.231 19.296 186.975 18.792C187.719 18.288 188.583 18.096 189.519 18.216V14.76C187.887 14.76 186.447 15.528 185.871 17.064V15ZM199.25 21.48C199.25 23.472 198.218 24.456 196.61 24.456C195.17 24.456 194.234 23.592 194.234 21.984V15H191.138V22.368C191.138 23.928 191.57 25.128 192.41 26.016C193.274 26.904 194.354 27.336 195.674 27.336C197.306 27.336 198.506 26.784 199.25 25.656V27H202.346V15H199.25V21.48Z" fill="#1B2F54"/>
<g clip-path="url(#clip0_4208_832)">
<path d="M8.23425 19.1332L19.4121 8.11701L30.5893 19.1332H38.8235L19.4121 0L0 19.1332H8.23425Z" fill="#EF4A23"/>
<path d="M31.5055 23.0986V34.2608H7.08454V23.0986H1.26196V40.0001H37.3281V23.0986H31.5055Z" fill="#EF4A23"/>
<path d="M10.7277 8.62085H4.85034V14.8384H10.7277V8.62085Z" fill="#EF4A23"/>
<path d="M19.9336 28.0449C22.43 28.0449 24.4538 26.0501 24.4538 23.5893C24.4538 21.1286 22.43 19.1338 19.9336 19.1338C17.4371 19.1338 15.4133 21.1286 15.4133 23.5893C15.4133 26.0501 17.4371 28.0449 19.9336 28.0449Z" fill="#EF4A23"/>
<path d="M37.328 22.4021H20.7737V25.1263H37.328V22.4021Z" fill="#EF4A23"/>
</g>
<defs>
<clipPath id="clip0_4208_832">
<rect width="38.8235" height="40" fill="white"/>
</clipPath>
</defs>
</svg>
